<svg viewBox="0 0 100 100" xmlns="http://www.w3.org/2000/svg">
  <defs>
    <linearGradient id="sprigGrad" x1="0" y1="0" x2="0" y2="1">
      <stop offset="0%" stop-color="#b7c0a9" />
      <stop offset="100%" stop-color="#71795f" />
    </linearGradient>
  </defs>
  <path d="M50 88C50 88 47 55 50 20" stroke="#6b5a45" stroke-width="2.4" fill="none" stroke-linecap="round" />
  <path d="M50 70c-10-4-18-13-19-25 13 1 22 9 25 20z" fill="url(#sprigGrad)" />
  <path d="M50 70c10-4 18-13 19-25-13 1-22 9-25 20z" fill="url(#sprigGrad)" opacity="0.9" />
  <path d="M50 50c-9-3-16-11-17-22 12 1 20 8 23 18z" fill="url(#sprigGrad)" />
  <path d="M50 50c9-3 16-11 17-22-12 1-20 8-23 18z" fill="url(#sprigGrad)" opacity="0.9" />
  <path d="M50 33c-6-2-11-8-12-16 9 1 15 6 17 13z" fill="url(#sprigGrad)" />
  <path d="M50 33c6-2 11-8 12-16-9 1-15 6-17 13z" fill="url(#sprigGrad)" opacity="0.9" />
</svg>
